<svg width="80" height="60" viewBox="0 0 80 60" fill="none" xmlns="http://www.w3.org/2000/svg">
<path d="M2.87358 23.6364H0.416548L4.76918 36H7.53409L11.8928 23.6364H9.42969L6.21804 33.3679H6.09126L2.87358 23.6364ZM13.4246 36H15.61V26.7273H13.4246V36ZM14.5233 25.4112C15.2176 25.4112 15.7851 24.88 15.7851 24.228C15.7851 23.57 15.2176 23.0387 14.5233 23.0387C13.8231 23.0387 13.2556 23.57 13.2556 24.228C13.2556 24.88 13.8231 25.4112 14.5233 25.4112ZM21.9624 36.1811C24.1236 36.1811 25.6087 35.1246 25.995 33.5128L23.9545 33.2834C23.6587 34.0682 22.9343 34.4787 21.9925 34.4787C20.5799 34.4787 19.6442 33.549 19.6261 31.9613H26.0856V31.2912C26.0856 28.0373 24.1296 26.6065 21.8477 26.6065C19.1914 26.6065 17.4588 28.5565 17.4588 31.418C17.4588 34.3278 19.1673 36.1811 21.9624 36.1811ZM19.6321 30.4883C19.6985 29.305 20.5739 28.3089 21.8778 28.3089C23.1335 28.3089 23.9787 29.2266 23.9908 30.4883H19.6321ZM29.7983 36H32.0803L33.8189 29.7337H33.9457L35.6843 36H37.9602L40.5863 26.7273H38.3526L36.7468 33.2109H36.6562L34.9901 26.7273H32.7866L31.1204 33.2472H31.0359L29.4059 26.7273H27.1783L29.7983 36ZM48.9972 36.1871C50.4521 36.1871 51.3215 35.505 51.7199 34.7262H51.7923V36H53.8932V29.794C53.8932 27.343 51.895 26.6065 50.1262 26.6065C48.1762 26.6065 46.6791 27.4759 46.1961 29.1662L48.2366 29.456C48.4539 28.8221 49.0697 28.2788 50.1382 28.2788C51.1524 28.2788 51.7078 28.7979 51.7078 29.7095V29.7457C51.7078 30.3736 51.0498 30.4038 49.4138 30.5788C47.6148 30.772 45.8943 31.3093 45.8943 33.3981C45.8943 35.2212 47.2284 36.1871 48.9972 36.1871ZM49.5647 34.5813C48.6531 34.5813 48.0012 34.1648 48.0012 33.3619C48.0012 32.5227 48.7316 32.1726 49.7096 32.0337C50.2831 31.9553 51.4301 31.8104 51.7139 31.581V32.6737C51.7139 33.706 50.8808 34.5813 49.5647 34.5813ZM58.276 23.6364H56.0906V36H58.276V23.6364ZM62.7086 23.6364H60.5233V36H62.7086V23.6364Z" fill="#FB8F1D"/>
<path d="M75 26L79 30.5L75 35" stroke="#FB8F1D" stroke-width="2" stroke-linecap="round" stroke-linejoin="round"/>
</svg>
